<svg width="40" height="33" viewBox="0 0 40 33" fill="none" xmlns="http://www.w3.org/2000/svg">
<path d="M40 15.0463C40 15.598 39.55 16.0494 39 16.0494H30.6812L26.9312 25.4533C26.7672 25.853 26.4078 26.0959 25.9312 26.0238C25.5 26.0489 25.1313 25.7417 25.0312 25.3217L20.1094 5.5734L14.9844 31.2963C14.8938 31.754 14.4937 32.0862 14.025 32.0988H14C13.5469 32.0988 13.1406 31.7853 13.0312 31.3389L9.21875 16.0494H1C0.450063 16.0494 0 15.598 0 15.0463C0 14.4946 0.450063 14.0996 1 14.0996H10C10.4609 14.0996 10.8594 14.4127 10.9688 14.8595L13.8906 26.583L19.0156 0.860147C19.1125 0.344811 19.5 0.0156732 19.9688 0C20.4766 0.00783661 20.8594 0.305628 20.9688 0.759838L26.2188 21.8247L29.0706 14.6714C29.2188 14.294 29.5938 14.0432 30 14.0432H39C39.55 14.0432 40 14.4946 40 15.0463Z" fill="#F01392"/>
</svg>
